# xmcd
# 
# Track frame offsets:
#     150
#     16687
#     44687
# 
# Disc length: 2118
# 
# Revision: 1
# Processed by: cddbd v1.5.2PL0 Copyright (c) Steve Scherf et al.
# Submitted via: fre:ac v1.0.31
# 
DISCID=1b084403
DTITLE=FUNK THE PEANUTS - 太陽にくちづけを！/ドライブ ドライブ ウレシイナ！
DYEAR=1996
DGENRE=JPop
TTITLE0=太陽にくちづけを！～あたしたち、真夏のFUN・P～
TTITLE1=ドライブ ドライブ ウレシイナ！
TTITLE2=EXTRA-TRACK
EXTD=1996.6.24
EXTT0=サントリー スーパーホップス CFイメージソング
EXTT1=トヨタ イプサム CMイメージソング
EXTT2=
PLAYORDER=
